<svg xmlns="http://www.w3.org/2000/svg" version="1.1" xmlns:xlink="http://www.w3.org/1999/xlink" xmlns:svgjs="http://svgjs.dev/svgjs" width="2000" height="676" viewBox="0 0 2000 676"><g transform="matrix(1,0,0,1,-1.2121212121212466,-2.5150855985623366)"><svg viewBox="0 0 396 134" data-background-color="#ffffff" preserveAspectRatio="xMidYMid meet" height="676" width="2000" xmlns="http://www.w3.org/2000/svg" xmlns:xlink="http://www.w3.org/1999/xlink"><g id="tight-bounds" transform="matrix(1,0,0,1,0.2400000000000091,0.4985524707209379)"><svg viewBox="0 0 395.52 133.00289505855812" height="133.00289505855812" width="395.52"><g><svg viewBox="0 0 395.52 133.00289505855812" height="133.00289505855812" width="395.52"><g><svg viewBox="0 0 395.52 133.00289505855812" height="133.00289505855812" width="395.52"><g id="textblocktransform"><svg viewBox="0 0 395.52 133.00289505855812" height="133.00289505855812" width="395.52" id="textblock"><g><svg viewBox="0 0 395.52 92.87435720773183" height="92.87435720773183" width="395.52"><rect width="395.52" height="92.87435720773183" x="0" y="0" opacity="1" fill="#ee3e38" data-fill-palette-color="tertiary"></rect><g transform="matrix(1,0,0,1,23.461705032,23.461705031999998)"><svg width="348.596589936" viewBox="1.4499999999999997 -40.05 375.87 49.55" height="45.95094714373184" data-palette-color="#ffffff"><path d="M14.7 0L2.55 0Q1.45-1.25 1.45-3.2L1.45-3.2Q3.1-3.2 3.78-3.75 4.45-4.3 4.45-5.7L4.45-5.7 4.45-29.2Q4.45-30.6 3.78-31.18 3.1-31.75 1.45-31.75L1.45-31.75Q1.45-33.65 2.55-34.9L2.55-34.9 14.7-34.9Q15.2-34.3 15.5-33.45 15.8-32.6 15.8-31.75L15.8-31.75Q14.15-31.75 13.48-31.18 12.8-30.6 12.8-29.2L12.8-29.2 12.8-5.7Q12.8-4.3 13.48-3.75 14.15-3.2 15.8-3.2L15.8-3.2Q15.8-2.3 15.5-1.45 15.2-0.6 14.7 0L14.7 0ZM31.35 0L20 0Q19.45-0.55 19.12-1.2 18.8-1.85 18.8-2.65L18.8-2.65Q20.3-2.65 20.95-3.3 21.6-3.95 21.6-5.4L21.6-5.4 21.6-20Q21.6-21.3 20.87-21.9 20.15-22.5 18.25-22.5L18.25-22.5 18.25-24.75Q19.4-25.4 21.17-25.95 22.95-26.5 24.62-26.83 26.3-27.15 27.2-27.15L27.2-27.15Q28.25-27.15 28.92-26.5 29.6-25.85 29.7-23.7L29.7-23.7Q30.95-25.25 32.87-26.2 34.8-27.15 37.35-27.15L37.35-27.15Q40.85-27.15 42.62-25.38 44.4-23.6 44.4-19.35L44.4-19.35 44.4-5.7Q44.4-3.25 46.8-2.8L46.8-2.8 46.85-1.35Q46.35-0.85 45.25-0.48 44.15-0.1 42.87 0.1 41.6 0.3 40.5 0.3L40.5 0.3Q38.35 0.3 37.32-0.5 36.3-1.3 36.3-3.05L36.3-3.05 36.3-18.65Q36.3-20.7 35.4-21.5 34.5-22.3 33.2-22.3L33.2-22.3Q31.15-22.3 29.75-20.65L29.75-20.65 29.75-5.4Q29.75-3.95 30.37-3.3 31-2.65 32.5-2.65L32.5-2.65Q32.5-1.15 31.35 0L31.35 0ZM59.2 0.35L59.2 0.35Q57.09 0.35 55.34-0.43 53.59-1.2 52.52-3.1 51.45-5 51.45-8.3L51.45-8.3 51.45-22.05 48.3-22.05 48.3-25.1Q49.65-25.3 50.84-26.8 52.05-28.3 52.92-30.5 53.8-32.7 54.05-34.9L54.05-34.9Q54.95-35.05 55.7-35.05L55.7-35.05Q57.7-35.05 58.47-33.9 59.25-32.75 59.25-31.75L59.25-31.75 59.25-26.5 65.05-26.5Q65.05-25.3 64.92-24.13 64.8-22.95 64.25-22.05L64.25-22.05 59.34-22.05 59.34-7.95Q59.34-6.35 60-5.83 60.65-5.3 61.65-5.3L61.65-5.3Q62.65-5.3 63.67-5.83 64.7-6.35 65.3-7.05L65.3-7.05Q65.84-6.6 66.05-5.73 66.25-4.85 66.25-4.4L66.25-4.4Q66.25-3.3 65.5-2.2 64.75-1.1 63.17-0.38 61.59 0.35 59.2 0.35ZM80.34 0.45L80.34 0.45Q74.74 0.45 71.42-3.1 68.09-6.65 68.09-13L68.09-13Q68.09-17.35 69.74-20.53 71.39-23.7 74.22-25.4 77.04-27.1 80.64-27.1L80.64-27.1Q85.14-27.1 87.87-24.48 90.59-21.85 90.59-17.1L90.59-17.1Q90.59-15.2 89.97-13.78 89.34-12.35 87.39-12.35L87.39-12.35 76.59-12.35Q76.74-8.4 78.42-6.75 80.09-5.1 82.79-5.1L82.79-5.1Q84.49-5.1 85.94-5.63 87.39-6.15 88.64-7.1L88.64-7.1Q89.09-6.7 89.37-5.88 89.64-5.05 89.64-4.5L89.64-4.5Q89.64-3.7 88.52-2.53 87.39-1.35 85.32-0.45 83.24 0.45 80.34 0.45ZM76.59-16.15L76.59-16.15 81.64-16.15Q82.49-16.15 82.72-16.8 82.94-17.45 82.94-18.4L82.94-18.4Q82.94-21.6 82.17-22.63 81.39-23.65 80.34-23.65L80.34-23.65Q79.49-23.65 78.64-23 77.79-22.35 77.24-20.73 76.69-19.1 76.59-16.15ZM107.74 0L94.39 0Q93.84-0.55 93.54-1.2 93.24-1.85 93.24-2.7L93.24-2.7Q94.69-2.7 95.32-3.33 95.94-3.95 95.94-5.45L95.94-5.45 95.94-19.9Q95.94-21.2 95.24-21.78 94.54-22.35 92.64-22.35L92.64-22.35 92.64-24.6Q93.84-25.3 95.49-25.83 97.14-26.35 98.74-26.68 100.34-27 101.24-27L101.24-27Q102.39-27 102.92-26.2 103.44-25.4 103.44-22.75L103.44-22.75Q103.99-23.8 105.07-24.83 106.14-25.85 107.49-26.5 108.84-27.15 110.29-27.15L110.29-27.15Q112.64-27.15 113.64-25.95 114.64-24.75 114.64-22.85L114.64-22.85Q114.64-20.7 113.54-19.35 112.44-18 110.49-18L110.49-18Q108.79-18 107.79-18.98 106.79-19.95 106.79-21.2L106.79-21.2Q106.79-22 106.94-22.45L106.94-22.45Q106.14-22.25 105.39-21.93 104.64-21.6 103.89-20.9L103.89-20.9 103.89-5.9Q103.89-4.75 104.24-4.05 104.59-3.35 105.62-3.03 106.64-2.7 108.69-2.7L108.69-2.7Q108.69-1.85 108.49-1.2 108.29-0.55 107.74 0L107.74 0ZM128.94 0.35L123.74 0.35 115.84-20.95Q115.34-22.3 114.79-22.93 114.24-23.55 112.94-23.55L112.94-23.55Q112.94-24.35 113.19-25.18 113.44-26 113.99-26.55L113.99-26.55 125.39-26.55Q125.94-26 126.24-25.18 126.54-24.35 126.54-23.55L126.54-23.55Q125.54-23.55 124.86-23 124.19-22.45 124.19-21.3L124.19-21.3Q124.19-21.1 124.26-20.8 124.34-20.5 124.39-20.25L124.39-20.25 126.44-13.45 128.74-4.7 131.04-13.45 132.99-20.25Q133.09-20.55 133.14-20.88 133.19-21.2 133.19-21.45L133.19-21.45Q133.19-22.5 132.49-23.03 131.79-23.55 130.59-23.55L130.59-23.55Q130.59-24.35 130.79-25.18 130.99-26 131.54-26.55L131.54-26.55 141.24-26.55Q141.79-26 142.01-25.18 142.24-24.35 142.24-23.55L142.24-23.55Q140.94-23.55 140.31-22.93 139.69-22.3 139.24-20.95L139.24-20.95 134.04-5Q133.24-2.25 132.21-0.95 131.19 0.35 128.94 0.35L128.94 0.35ZM148.74-30.65L148.74-30.65Q146.59-30.65 145.31-31.93 144.04-33.2 144.04-35.35L144.04-35.35Q144.04-37.45 145.36-38.75 146.69-40.05 148.84-40.05L148.84-40.05Q151.04-40.05 152.31-38.75 153.59-37.45 153.59-35.35L153.59-35.35Q153.59-33.2 152.26-31.93 150.94-30.65 148.74-30.65ZM154.44 0L143.14 0Q142.59-0.55 142.29-1.2 141.99-1.85 141.99-2.7L141.99-2.7Q143.44-2.7 144.14-3.33 144.84-3.95 144.84-5.45L144.84-5.45 144.84-19.95Q144.84-21.25 144.21-21.9 143.59-22.55 141.54-22.55L141.54-22.55 141.54-24.75Q142.29-25.2 143.84-25.78 145.39-26.35 147.21-26.75 149.04-27.15 150.49-27.15L150.49-27.15Q151.64-27.15 152.14-26.63 152.64-26.1 152.64-24.85L152.64-24.85 152.64-5.4Q152.64-3.9 153.39-3.3 154.14-2.7 155.59-2.7L155.59-2.7Q155.59-1.85 155.29-1.2 154.99-0.55 154.44 0L154.44 0ZM170.08 0.45L170.08 0.45Q164.48 0.45 161.16-3.1 157.83-6.65 157.83-13L157.83-13Q157.83-17.35 159.48-20.53 161.13-23.7 163.96-25.4 166.78-27.1 170.38-27.1L170.38-27.1Q174.88-27.1 177.61-24.48 180.33-21.85 180.33-17.1L180.33-17.1Q180.33-15.2 179.71-13.78 179.08-12.35 177.13-12.35L177.13-12.35 166.33-12.35Q166.48-8.4 168.16-6.75 169.83-5.1 172.53-5.1L172.53-5.1Q174.23-5.1 175.68-5.63 177.13-6.15 178.38-7.1L178.38-7.1Q178.83-6.7 179.11-5.88 179.38-5.05 179.38-4.5L179.38-4.5Q179.38-3.7 178.26-2.53 177.13-1.35 175.06-0.45 172.98 0.45 170.08 0.45ZM166.33-16.15L166.33-16.15 171.38-16.15Q172.23-16.15 172.46-16.8 172.68-17.45 172.68-18.4L172.68-18.4Q172.68-21.6 171.91-22.63 171.13-23.65 170.08-23.65L170.08-23.65Q169.23-23.65 168.38-23 167.53-22.35 166.98-20.73 166.43-19.1 166.33-16.15ZM194.98 0.35L189.88 0.35 183.08-20.95Q182.63-22.3 182.06-22.93 181.48-23.55 180.18-23.55L180.18-23.55Q180.18-24.35 180.43-25.18 180.68-26 181.23-26.55L181.23-26.55 192.48-26.55Q193.03-26 193.33-25.18 193.63-24.35 193.63-23.55L193.63-23.55Q192.63-23.55 191.96-23 191.28-22.45 191.28-21.3L191.28-21.3Q191.28-21.1 191.36-20.8 191.43-20.5 191.48-20.25L191.48-20.25 192.78-13.45 194.28-6.4 196.48-13.45 197.93-18.65Q198.53-21 199.26-22.63 199.98-24.25 201.78-24.25L201.78-24.25 205.63-24.2 208.23-13.5 210.43-6.6 211.53-13.5 213.18-20.55Q213.38-21.3 213.38-21.9L213.38-21.9Q213.38-23.55 211.38-23.55L211.38-23.55Q211.38-24.35 211.58-25.18 211.78-26 212.33-26.55L212.33-26.55 221.88-26.55Q222.48-26 222.68-25.18 222.88-24.35 222.88-23.55L222.88-23.55Q221.48-23.55 220.71-23.08 219.93-22.6 219.53-21.25L219.53-21.25 215.08-5.1Q214.58-3.15 214.03-1.95 213.48-0.75 212.61-0.2 211.73 0.35 210.08 0.35L210.08 0.35 206.13 0.35 201.43-14.65 198.73-5Q198.08-2.55 197.38-1.28 196.68 0 194.98 0.3L194.98 0.3 194.98 0.35ZM238.43 0L223.88 0Q222.73-1.3 222.73-3.2L222.73-3.2Q224.43-3.2 225.15-3.75 225.88-4.3 225.88-5.7L225.88-5.7 225.88-29.2Q225.88-30.6 225.15-31.18 224.43-31.75 222.73-31.75L222.73-31.75Q222.73-32.6 223.03-33.43 223.33-34.25 223.83-34.9L223.83-34.9Q228.73-34.9 231.68-35.08 234.63-35.25 236.73-35.25L236.73-35.25Q242.03-35.25 245.15-33.95 248.28-32.65 249.65-30.13 251.03-27.6 251.03-23.95L251.03-23.95Q251.03-20.7 249.4-18.05 247.78-15.4 244.5-13.88 241.23-12.35 236.18-12.35L236.18-12.35 234.08-12.35 234.08-7.95Q234.08-6 234.5-4.98 234.93-3.95 236.13-3.58 237.33-3.2 239.53-3.2L239.53-3.2Q239.53-1.25 238.43 0L238.43 0ZM235.38-16.35L235.38-16.35Q237.73-16.35 239.1-17.07 240.48-17.8 241.18-18.95 241.88-20.1 242.1-21.48 242.33-22.85 242.33-24.1L242.33-24.1Q242.33-26 241.75-27.65 241.18-29.3 239.8-30.3 238.43-31.3 235.93-31.3L235.93-31.3Q234.83-31.3 234.08-31.1L234.08-31.1 234.08-16.45Q234.43-16.4 234.73-16.38 235.03-16.35 235.38-16.35ZM267.38 0L254.03 0Q253.48-0.55 253.18-1.2 252.88-1.85 252.88-2.7L252.88-2.7Q254.33-2.7 254.95-3.33 255.58-3.95 255.58-5.45L255.58-5.45 255.58-19.9Q255.58-21.2 254.88-21.78 254.18-22.35 252.28-22.35L252.28-22.35 252.28-24.6Q253.48-25.3 255.13-25.83 256.78-26.35 258.38-26.68 259.98-27 260.88-27L260.88-27Q262.03-27 262.55-26.2 263.08-25.4 263.08-22.75L263.08-22.75Q263.63-23.8 264.7-24.83 265.78-25.85 267.13-26.5 268.48-27.15 269.93-27.15L269.93-27.15Q272.28-27.15 273.28-25.95 274.28-24.75 274.28-22.85L274.28-22.85Q274.28-20.7 273.18-19.35 272.08-18 270.13-18L270.13-18Q268.43-18 267.43-18.98 266.43-19.95 266.43-21.2L266.43-21.2Q266.43-22 266.58-22.45L266.58-22.45Q265.78-22.25 265.03-21.93 264.28-21.6 263.53-20.9L263.53-20.9 263.53-5.9Q263.53-4.75 263.88-4.05 264.23-3.35 265.25-3.03 266.28-2.7 268.33-2.7L268.33-2.7Q268.33-1.85 268.13-1.2 267.93-0.55 267.38 0L267.38 0ZM287.72 0.45L287.72 0.45Q282.12 0.45 278.8-3.1 275.47-6.65 275.47-13L275.47-13Q275.47-17.35 277.12-20.53 278.77-23.7 281.6-25.4 284.42-27.1 288.02-27.1L288.02-27.1Q292.52-27.1 295.25-24.48 297.97-21.85 297.97-17.1L297.97-17.1Q297.97-15.2 297.35-13.78 296.72-12.35 294.77-12.35L294.77-12.35 283.97-12.35Q284.12-8.4 285.8-6.75 287.47-5.1 290.17-5.1L290.17-5.1Q291.87-5.1 293.32-5.63 294.77-6.15 296.02-7.1L296.02-7.1Q296.47-6.7 296.75-5.88 297.02-5.05 297.02-4.5L297.02-4.5Q297.02-3.7 295.9-2.53 294.77-1.35 292.7-0.45 290.62 0.45 287.72 0.45ZM283.97-16.15L283.97-16.15 289.02-16.15Q289.87-16.15 290.1-16.8 290.32-17.45 290.32-18.4L290.32-18.4Q290.32-21.6 289.55-22.63 288.77-23.65 287.72-23.65L287.72-23.65Q286.87-23.65 286.02-23 285.17-22.35 284.62-20.73 284.07-19.1 283.97-16.15ZM312.82 9.5L301.77 9.5Q301.22 8.95 300.9 8.3 300.57 7.65 300.57 6.85L300.57 6.85Q302.07 6.85 302.5 6.2 302.92 5.55 302.92 4.1L302.92 4.1 302.92-19.85Q302.92-21.15 302.2-21.75 301.47-22.35 299.57-22.35L299.57-22.35 299.57-24.6Q300.67-25.25 302.2-25.8 303.72-26.35 305.17-26.68 306.62-27 307.47-27L307.47-27Q308.47-27 309.15-26.6 309.82-26.2 310.12-25L310.12-25Q311.27-26.1 312.85-26.55 314.42-27 316.17-27L316.17-27Q318.82-27 321.12-25.63 323.42-24.25 324.85-21.5 326.27-18.75 326.27-14.5L326.27-14.5Q326.27-9.75 324.45-6.38 322.62-3 319.55-1.23 316.47 0.55 312.72 0.55L312.72 0.55Q312.32 0.55 311.82 0.53 311.32 0.5 310.77 0.45L310.77 0.45 310.77 4.1Q310.77 5.55 311.82 6.2 312.87 6.85 313.97 6.85L313.97 6.85Q313.97 8.35 312.82 9.5L312.82 9.5ZM312.67-3.1L312.67-3.1Q314.72-3.1 316.17-5.5 317.62-7.9 317.62-13.3L317.62-13.3Q317.62-16.75 316.9-18.78 316.17-20.8 314.92-21.68 313.67-22.55 312.17-22.55L312.17-22.55Q311.37-22.55 310.77-22.25L310.77-22.25 310.77-3.6Q311.62-3.1 312.67-3.1ZM338.97 0L327.82 0Q326.67-1.25 326.67-3.2L326.67-3.2Q328.02-3.2 329.19-4 330.37-4.8 330.92-6.45L330.92-6.45 339.12-30.65Q337.12-31.3 334.07-31.3L334.07-31.3Q334.07-33.45 335.27-34.9L335.27-34.9 348.97-34.9 358.27-6.6Q358.82-4.95 360.02-4.08 361.22-3.2 362.52-3.2L362.52-3.2Q362.52-1.25 361.37 0L361.37 0 347.82 0Q346.67-1.25 346.67-3.2L346.67-3.2Q347.97-3.2 348.74-3.78 349.52-4.35 349.52-5.6L349.52-5.6Q349.52-6.05 349.44-6.65 349.37-7.25 349.17-7.95L349.17-7.95 348.87-9 337.67-9 337.37-7.95Q337.17-7.3 337.04-6.75 336.92-6.2 336.92-5.75L336.92-5.75Q336.92-4.4 337.77-3.8 338.62-3.2 340.12-3.2L340.12-3.2Q340.12-1.25 338.97 0L338.97 0ZM343.07-27.85L338.77-12.9 347.77-12.9 344.22-25.3Q343.77-26.8 343.07-27.85L343.07-27.85ZM376.22 0L364.07 0Q362.97-1.25 362.97-3.2L362.97-3.2Q364.62-3.2 365.29-3.75 365.97-4.3 365.97-5.7L365.97-5.7 365.97-29.2Q365.97-30.6 365.29-31.18 364.62-31.75 362.97-31.75L362.97-31.75Q362.97-33.65 364.07-34.9L364.07-34.9 376.22-34.9Q376.72-34.3 377.02-33.45 377.32-32.6 377.32-31.75L377.32-31.75Q375.67-31.75 374.99-31.18 374.32-30.6 374.32-29.2L374.32-29.2 374.32-5.7Q374.32-4.3 374.99-3.75 375.67-3.2 377.32-3.2L377.32-3.2Q377.32-2.3 377.02-1.45 376.72-0.6 376.22 0L376.22 0Z" opacity="1" transform="matrix(1,0,0,1,0,0)" fill="#ffffff" class="wordmark-text-0" data-fill-palette-color="quaternary" id="text-0"></path></svg></g></svg></g><g transform="matrix(1,0,0,1,0,104.60520972373183)"><svg viewBox="0 0 395.52 28.397685334826278" height="28.397685334826278" width="395.52"><g transform="matrix(1,0,0,1,0,0)"><svg width="395.52" viewBox="0.5 -34.25 600.29 43.1" height="28.397685334826278" data-palette-color="#ee3e38"><path d="M21.75-32.1L32-0.6 32-0.45 23.5-0.45Q23.15-1.65 22.68-3.2 22.2-4.75 21.65-6.5L21.65-6.5 10.85-6.5Q9.85-3 9-0.45L9-0.45 0.5-0.45 0.5-0.55 10.75-32.1 21.75-32.1ZM16.35-26.4L16.15-26.4Q15.65-23.85 14.7-20.2 13.75-16.55 12.7-12.75L12.7-12.75 19.85-12.75Q18.75-16.55 17.8-20.2 16.85-23.85 16.35-26.4L16.35-26.4ZM64.13-7.65L64.33-7.5 64.33-1Q63.08-0.5 60.63-0.25 58.18 0 55.43 0L55.43 0Q51.48 0 48.86-1.1 46.23-2.2 44.96-4.9 43.68-7.6 43.63-12.4L43.63-12.4Q43.63-17.35 45.01-20.1 46.38-22.85 49.03-23.95 51.68-25.05 55.38-25.05L55.38-25.05Q57.58-25.05 60.03-24.75 62.48-24.45 64.03-23.95L64.03-23.95 64.08-17.25 63.93-17.15Q62.43-17.45 60.73-17.6 59.03-17.75 57.38-17.75L57.38-17.75Q54.03-17.75 52.73-16.5 51.43-15.25 51.43-12.3L51.43-12.3Q51.43-10.05 51.98-8.95 52.53-7.85 53.83-7.5 55.13-7.15 57.38-7.15L57.38-7.15Q59.13-7.15 60.73-7.3 62.33-7.45 64.13-7.65L64.13-7.65ZM100.16-6.8L100.16-1.25Q98.76-0.75 96.29-0.38 93.81 0 90.41 0L90.41 0Q86.11 0 83.09-1.13 80.06-2.25 78.51-4.98 76.96-7.7 76.96-12.55L76.96-12.55Q76.96-19.15 79.99-22.1 83.01-25.05 89.36-25.05L89.36-25.05Q93.91-25.05 96.54-23.75 99.16-22.45 100.29-20.08 101.41-17.7 101.41-14.45L101.41-14.45Q101.41-13.5 101.34-12.4 101.26-11.3 101.06-10.25L101.06-10.25 100.86-10.05 84.41-10.05Q84.76-7.85 86.49-7.15 88.21-6.45 92.11-6.45L92.11-6.45Q94.71-6.45 96.44-6.58 98.16-6.7 99.96-6.95L99.96-6.95 100.16-6.8ZM84.26-15.3L94.46-15.3Q94.46-16.5 94.09-17.38 93.71-18.25 92.61-18.73 91.51-19.2 89.36-19.2L89.36-19.2Q86.21-19.2 85.24-18.13 84.26-17.05 84.26-15.3L84.26-15.3ZM143.23 8.85L143.23 8.75 147.08-0.4 137.43-24.7 137.43-24.8 146.38-24.8Q147.78-20.85 149-16.85 150.23-12.85 150.98-8.65L150.98-8.65 151.08-8.65Q151.83-12.8 153-16.8 154.18-20.8 155.68-24.8L155.68-24.8 164.28-24.8 164.28-24.65 151.43 8.85 143.23 8.85ZM175.41-12.45L175.41-12.45Q175.41-19.15 178.26-22.1 181.11-25.05 187.91-25.05L187.91-25.05Q192.46-25.05 195.21-23.75 197.96-22.45 199.18-19.68 200.41-16.9 200.41-12.45L200.41-12.45Q200.41-8.05 199.18-5.3 197.96-2.55 195.21-1.28 192.46 0 187.91 0L187.91 0Q181.11 0 178.26-2.93 175.41-5.85 175.41-12.45ZM187.91-6.85L187.91-6.85Q190.81-6.85 191.83-8.13 192.86-9.4 192.86-12.6L192.86-12.6Q192.86-15.65 191.83-16.98 190.81-18.3 187.91-18.3L187.91-18.3Q185.11-18.3 184.03-16.98 182.96-15.65 182.96-12.6L182.96-12.6Q182.96-9.4 184.03-8.13 185.11-6.85 187.91-6.85ZM222.54 0L222.54 0Q217.94 0 215.99-2.45 214.04-4.9 214.04-9.45L214.04-9.45 214.04-24.8 222.04-24.8 222.09-11.4Q222.09-9.15 222.89-8.22 223.69-7.3 226.14-7.3L226.14-7.3Q228.49-7.3 229.32-8.13 230.14-8.95 230.19-10.95L230.19-10.95 230.19-24.8 238.19-24.8 238.19-0.45 230.59-0.45 230.19-3.2 230.04-3.2Q229.39-1.75 227.39-0.88 225.39 0 222.54 0ZM262.17-9.25L262.07-0.45 254.07-0.45 254.07-24.8 260.57-24.8 261.22-19.8 261.37-19.8Q261.82-22.6 263.52-23.83 265.22-25.05 268.57-25.05L268.57-25.05Q269.92-25.05 271.02-24.93 272.12-24.8 272.87-24.7L272.87-24.7 272.87-16.9 272.77-16.8Q271.97-17 270.95-17.15 269.92-17.3 268.62-17.3L268.62-17.3Q266.77-17.3 265.3-16.7 263.82-16.1 263-14.38 262.17-12.65 262.17-9.25L262.17-9.25 262.17-9.25ZM318.69-33.85L318.69-33.85Q318.84-32.05 318.84-30.85L318.84-30.85Q318.84-30.15 318.81-29.43 318.79-28.7 318.69-27.8L318.69-27.8Q317.64-27.6 316.64-27.5 315.64-27.4 314.64-27.4L314.64-27.4Q313.69-27.4 312.71-27.5 311.74-27.6 310.74-27.8L310.74-27.8Q310.64-28.65 310.59-29.38 310.54-30.1 310.54-30.8L310.54-30.8Q310.54-31.45 310.59-32.2 310.64-32.95 310.74-33.85L310.74-33.85Q311.74-34.1 312.76-34.18 313.79-34.25 314.79-34.25L314.79-34.25Q315.74-34.25 316.71-34.18 317.69-34.1 318.69-33.85ZM318.69-24.8L318.69-0.45 310.69-0.45 310.69-24.8 318.69-24.8ZM342.12-13L342.12-0.45 334.12-0.45 334.12-24.8 341.72-24.8 342.12-20.35 342.27-20.35Q342.97-22.6 344.77-23.83 346.57-25.05 349.77-25.05L349.77-25.05Q354.12-25.05 356.19-22.6 358.27-20.15 358.27-14.1L358.27-14.1 358.27-0.45 350.27-0.45 350.22-12.55Q350.22-15.35 349.37-16.55 348.52-17.75 346.17-17.75L346.17-17.75Q343.97-17.75 343.07-16.68 342.17-15.6 342.12-13L342.12-13ZM374.15-7.75L374.15-7.75 374.15-18.25 371.15-18.25 371.15-24.75 374.9-24.75 376.4-30.7 382.15-30.7 382.15-24.75 387.6-24.75 387.6-18.25 382.15-18.25 382.15-9.5Q382.15-8.1 382.5-7.58 382.85-7.05 384.1-7.05L384.1-7.05Q384.9-7.05 385.8-7.13 386.7-7.2 387.6-7.3L387.6-7.3 387.75-7.2 387.75-0.7Q385.35 0 381.4 0L381.4 0Q377.45 0 375.8-1.8 374.15-3.6 374.15-7.75ZM423.58-6.8L423.58-1.25Q422.18-0.75 419.71-0.38 417.23 0 413.83 0L413.83 0Q409.53 0 406.51-1.13 403.48-2.25 401.93-4.98 400.38-7.7 400.38-12.55L400.38-12.55Q400.38-19.15 403.41-22.1 406.43-25.05 412.78-25.05L412.78-25.05Q417.33-25.05 419.96-23.75 422.58-22.45 423.71-20.08 424.83-17.7 424.83-14.45L424.83-14.45Q424.83-13.5 424.76-12.4 424.68-11.3 424.48-10.25L424.48-10.25 424.28-10.05 407.83-10.05Q408.18-7.85 409.91-7.15 411.63-6.45 415.53-6.45L415.53-6.45Q418.13-6.45 419.86-6.58 421.58-6.7 423.38-6.95L423.38-6.95 423.58-6.8ZM407.68-15.3L417.88-15.3Q417.88-16.5 417.51-17.38 417.13-18.25 416.03-18.73 414.93-19.2 412.78-19.2L412.78-19.2Q409.63-19.2 408.66-18.13 407.68-17.05 407.68-15.3L407.68-15.3ZM447.06-9.25L446.96-0.45 438.96-0.45 438.96-24.8 445.46-24.8 446.11-19.8 446.26-19.8Q446.71-22.6 448.41-23.83 450.11-25.05 453.46-25.05L453.46-25.05Q454.81-25.05 455.91-24.93 457.01-24.8 457.76-24.7L457.76-24.7 457.76-16.9 457.66-16.8Q456.86-17 455.84-17.15 454.81-17.3 453.51-17.3L453.51-17.3Q451.66-17.3 450.19-16.7 448.71-16.1 447.89-14.38 447.06-12.65 447.06-9.25L447.06-9.25 447.06-9.25ZM494.1-24.8L494.1-24.65 486.15-0.45 476.15-0.45 468.65-24.7 468.65-24.8 477.65-24.8Q478.7-20.9 479.62-16.35 480.55-11.8 481.3-7.6L481.3-7.6 481.5-7.6Q482.25-11.8 483.17-16.35 484.1-20.9 485.15-24.8L485.15-24.8 494.1-24.8ZM515.03-33.85L515.03-33.85Q515.18-32.05 515.18-30.85L515.18-30.85Q515.18-30.15 515.15-29.43 515.13-28.7 515.03-27.8L515.03-27.8Q513.98-27.6 512.98-27.5 511.98-27.4 510.98-27.4L510.98-27.4Q510.03-27.4 509.05-27.5 508.08-27.6 507.08-27.8L507.08-27.8Q506.98-28.65 506.93-29.38 506.88-30.1 506.88-30.8L506.88-30.8Q506.88-31.45 506.93-32.2 506.98-32.95 507.08-33.85L507.08-33.85Q508.08-34.1 509.1-34.18 510.13-34.25 511.13-34.25L511.13-34.25Q512.08-34.25 513.05-34.18 514.03-34.1 515.03-33.85ZM515.03-24.8L515.03-0.45 507.03-0.45 507.03-24.8 515.03-24.8ZM551.91-6.8L551.91-1.25Q550.51-0.75 548.04-0.38 545.56 0 542.16 0L542.16 0Q537.86 0 534.84-1.13 531.81-2.25 530.26-4.98 528.71-7.7 528.71-12.55L528.71-12.55Q528.71-19.15 531.74-22.1 534.76-25.05 541.11-25.05L541.11-25.05Q545.66-25.05 548.29-23.75 550.91-22.45 552.04-20.08 553.16-17.7 553.16-14.45L553.16-14.45Q553.16-13.5 553.09-12.4 553.01-11.3 552.81-10.25L552.81-10.25 552.61-10.05 536.16-10.05Q536.51-7.85 538.24-7.15 539.96-6.45 543.86-6.45L543.86-6.45Q546.46-6.45 548.19-6.58 549.91-6.7 551.71-6.95L551.71-6.95 551.91-6.8ZM536.01-15.3L546.21-15.3Q546.21-16.5 545.84-17.38 545.46-18.25 544.36-18.73 543.26-19.2 541.11-19.2L541.11-19.2Q537.96-19.2 536.99-18.13 536.01-17.05 536.01-15.3L536.01-15.3ZM582.79-13.6L582.69-13.6Q581.99-10.15 581.24-6.85 580.49-3.55 579.64-0.45L579.64-0.45 570.99-0.45 564.79-24.8 573.09-24.8Q573.79-21.05 574.49-17 575.19-12.95 575.74-9.05L575.74-9.05 575.84-9.05Q576.59-12.95 577.47-17 578.34-21.05 579.24-24.8L579.24-24.8 586.24-24.8Q587.14-21.05 588.02-17 588.89-12.95 589.64-9.05L589.64-9.05 589.74-9.05Q590.29-12.95 590.99-17 591.69-21.05 592.39-24.8L592.39-24.8 600.79-24.8 594.59-0.45 585.94-0.45Q585.14-3.55 584.32-6.85 583.49-10.15 582.79-13.6L582.79-13.6Z" opacity="1" transform="matrix(1,0,0,1,0,0)" fill="#ee3e38" class="slogan-text-1" data-fill-palette-color="secondary" id="text-1"></path></svg></g></svg></g></svg></g></svg></g></svg></g><defs></defs></svg><rect width="395.52" height="133.00289505855812" fill="none" stroke="none" visibility="hidden"></rect></g></svg></g></svg>