<svg xmlns="http://www.w3.org/2000/svg" version="1.1" xmlns:xlink="http://www.w3.org/1999/xlink" xmlns:svgjs="http://svgjs.dev/svgjs" width="2000" height="535" viewBox="0 0 2000 535"><g transform="matrix(1,0,0,1,-1.2121212121212466,-1.0695592229112663)"><svg viewBox="0 0 396 106" data-background-color="#ffffff" preserveAspectRatio="xMidYMid meet" height="535" width="2000" xmlns="http://www.w3.org/2000/svg" xmlns:xlink="http://www.w3.org/1999/xlink"><g id="tight-bounds" transform="matrix(1,0,0,1,0.2400000000000091,0.21191266846466306)"><svg viewBox="0 0 395.52 102.19014006817042" height="102.19014006817042" width="395.52"><g><svg viewBox="0 0 497.097898438436 128.43472863323456" height="102.19014006817042" width="395.52"><g><rect width="4.8339836986776685" height="93.39862682807576" x="84.08950715159689" y="17.518050902579397" fill="#ff4545" opacity="1" stroke-width="0" stroke="transparent" fill-opacity="1" class="rect-yte-0" data-fill-palette-color="primary" rx="1%" id="yte-0" data-palette-color="#ff4545"></rect></g><g transform="matrix(1,0,0,1,101.577898438436,17.750385795186546)"><svg viewBox="0 0 395.52 92.93395704286146" height="92.93395704286146" width="395.52"><g id="textblocktransform"><svg viewBox="0 0 395.52 92.93395704286146" height="92.93395704286146" width="395.52" id="textblock"><g><svg viewBox="0 0 395.52 53.60310911808669" height="53.60310911808669" width="395.52"><g transform="matrix(1,0,0,1,0,0)"><svg width="395.52" viewBox="1.4499999999999997 -40.05 301.02000000000004 40.8" height="53.60310911808669" data-palette-color="#ff4545"><g class="wordmark-text-0" data-fill-palette-color="primary" id="text-0"><path d="M14.7 0L2.55 0Q1.45-1.25 1.45-3.2L1.45-3.2Q3.1-3.2 3.78-3.75 4.45-4.3 4.45-5.7L4.45-5.7 4.45-29.2Q4.45-30.6 3.78-31.18 3.1-31.75 1.45-31.75L1.45-31.75Q1.45-33.65 2.55-34.9L2.55-34.9 14.7-34.9Q15.2-34.3 15.5-33.45 15.8-32.6 15.8-31.75L15.8-31.75Q14.15-31.75 13.48-31.18 12.8-30.6 12.8-29.2L12.8-29.2 12.8-5.7Q12.8-4.3 13.48-3.75 14.15-3.2 15.8-3.2L15.8-3.2Q15.8-2.3 15.5-1.45 15.2-0.6 14.7 0L14.7 0ZM31.35 0L20 0Q19.45-0.55 19.12-1.2 18.8-1.85 18.8-2.65L18.8-2.65Q20.3-2.65 20.95-3.3 21.6-3.95 21.6-5.4L21.6-5.4 21.6-20Q21.6-21.3 20.87-21.9 20.15-22.5 18.25-22.5L18.25-22.5 18.25-24.75Q19.4-25.4 21.17-25.95 22.95-26.5 24.62-26.83 26.3-27.15 27.2-27.15L27.2-27.15Q28.25-27.15 28.92-26.5 29.6-25.85 29.7-23.7L29.7-23.7Q30.95-25.25 32.87-26.2 34.8-27.15 37.35-27.15L37.35-27.15Q40.85-27.15 42.62-25.38 44.4-23.6 44.4-19.35L44.4-19.35 44.4-5.7Q44.4-3.25 46.8-2.8L46.8-2.8 46.85-1.35Q46.35-0.85 45.25-0.48 44.15-0.1 42.87 0.1 41.6 0.3 40.5 0.3L40.5 0.3Q38.35 0.3 37.32-0.5 36.3-1.3 36.3-3.05L36.3-3.05 36.3-18.65Q36.3-20.7 35.4-21.5 34.5-22.3 33.2-22.3L33.2-22.3Q31.15-22.3 29.75-20.65L29.75-20.65 29.75-5.4Q29.75-3.95 30.37-3.3 31-2.65 32.5-2.65L32.5-2.65Q32.5-1.15 31.35 0L31.35 0ZM59.2 0.35L59.2 0.35Q57.09 0.35 55.34-0.43 53.59-1.2 52.52-3.1 51.45-5 51.45-8.3L51.45-8.3 51.45-22.05 48.3-22.05 48.3-25.1Q49.65-25.3 50.84-26.8 52.05-28.3 52.92-30.5 53.8-32.7 54.05-34.9L54.05-34.9Q54.95-35.05 55.7-35.05L55.7-35.05Q57.7-35.05 58.47-33.9 59.25-32.75 59.25-31.75L59.25-31.75 59.25-26.5 65.05-26.5Q65.05-25.3 64.92-24.13 64.8-22.95 64.25-22.05L64.25-22.05 59.34-22.05 59.34-7.95Q59.34-6.35 60-5.83 60.65-5.3 61.65-5.3L61.65-5.3Q62.65-5.3 63.67-5.83 64.7-6.35 65.3-7.05L65.3-7.05Q65.84-6.6 66.05-5.73 66.25-4.85 66.25-4.4L66.25-4.4Q66.25-3.3 65.5-2.2 64.75-1.1 63.17-0.38 61.59 0.35 59.2 0.35ZM80.34 0.45L80.34 0.45Q74.74 0.45 71.42-3.1 68.09-6.65 68.09-13L68.09-13Q68.09-17.35 69.74-20.53 71.39-23.7 74.22-25.4 77.04-27.1 80.64-27.1L80.64-27.1Q85.14-27.1 87.87-24.48 90.59-21.85 90.59-17.1L90.59-17.1Q90.59-15.2 89.97-13.78 89.34-12.35 87.39-12.35L87.39-12.35 76.59-12.35Q76.74-8.4 78.42-6.75 80.09-5.1 82.79-5.1L82.79-5.1Q84.49-5.1 85.94-5.63 87.39-6.15 88.64-7.1L88.64-7.1Q89.09-6.7 89.37-5.88 89.64-5.05 89.64-4.5L89.64-4.5Q89.64-3.7 88.52-2.53 87.39-1.35 85.32-0.45 83.24 0.45 80.34 0.45ZM76.59-16.15L76.59-16.15 81.64-16.15Q82.49-16.15 82.72-16.8 82.94-17.45 82.94-18.4L82.94-18.4Q82.94-21.6 82.17-22.63 81.39-23.65 80.34-23.65L80.34-23.65Q79.49-23.65 78.64-23 77.79-22.35 77.24-20.73 76.69-19.1 76.59-16.15ZM107.74 0L94.39 0Q93.84-0.55 93.54-1.2 93.24-1.85 93.24-2.7L93.24-2.7Q94.69-2.7 95.32-3.33 95.94-3.95 95.94-5.45L95.94-5.45 95.94-19.9Q95.94-21.2 95.24-21.78 94.54-22.35 92.64-22.35L92.64-22.35 92.64-24.6Q93.84-25.3 95.49-25.83 97.14-26.35 98.74-26.68 100.34-27 101.24-27L101.24-27Q102.39-27 102.92-26.2 103.44-25.4 103.44-22.75L103.44-22.75Q103.99-23.8 105.07-24.83 106.14-25.85 107.49-26.5 108.84-27.15 110.29-27.15L110.29-27.15Q112.64-27.15 113.64-25.95 114.64-24.75 114.64-22.85L114.64-22.85Q114.64-20.7 113.54-19.35 112.44-18 110.49-18L110.49-18Q108.79-18 107.79-18.98 106.79-19.95 106.79-21.2L106.79-21.2Q106.79-22 106.94-22.45L106.94-22.45Q106.14-22.25 105.39-21.93 104.64-21.6 103.89-20.9L103.89-20.9 103.89-5.9Q103.89-4.75 104.24-4.05 104.59-3.35 105.62-3.03 106.64-2.7 108.69-2.7L108.69-2.7Q108.69-1.85 108.49-1.2 108.29-0.55 107.74 0L107.74 0ZM128.94 0.35L123.74 0.35 115.84-20.95Q115.34-22.3 114.79-22.93 114.24-23.55 112.94-23.55L112.94-23.55Q112.94-24.35 113.19-25.18 113.44-26 113.99-26.55L113.99-26.55 125.39-26.55Q125.94-26 126.24-25.18 126.54-24.35 126.54-23.55L126.54-23.55Q125.54-23.55 124.86-23 124.19-22.45 124.19-21.3L124.19-21.3Q124.19-21.1 124.26-20.8 124.34-20.5 124.39-20.25L124.39-20.25 126.44-13.45 128.74-4.7 131.04-13.45 132.99-20.25Q133.09-20.55 133.14-20.88 133.19-21.2 133.19-21.45L133.19-21.45Q133.19-22.5 132.49-23.03 131.79-23.55 130.59-23.55L130.59-23.55Q130.59-24.35 130.79-25.18 130.99-26 131.54-26.55L131.54-26.55 141.24-26.55Q141.79-26 142.01-25.18 142.24-24.35 142.24-23.55L142.24-23.55Q140.94-23.55 140.31-22.93 139.69-22.3 139.24-20.95L139.24-20.95 134.04-5Q133.24-2.25 132.21-0.95 131.19 0.35 128.94 0.35L128.94 0.35ZM148.74-30.65L148.74-30.65Q146.59-30.65 145.31-31.93 144.04-33.2 144.04-35.35L144.04-35.35Q144.04-37.45 145.36-38.75 146.69-40.05 148.84-40.05L148.84-40.05Q151.04-40.05 152.31-38.75 153.59-37.45 153.59-35.35L153.59-35.35Q153.59-33.2 152.26-31.93 150.94-30.65 148.74-30.65ZM154.44 0L143.14 0Q142.59-0.55 142.29-1.2 141.99-1.85 141.99-2.7L141.99-2.7Q143.44-2.7 144.14-3.33 144.84-3.95 144.84-5.45L144.84-5.45 144.84-19.95Q144.84-21.25 144.21-21.9 143.59-22.55 141.54-22.55L141.54-22.55 141.54-24.75Q142.29-25.2 143.84-25.78 145.39-26.35 147.21-26.75 149.04-27.15 150.49-27.15L150.49-27.15Q151.64-27.15 152.14-26.63 152.64-26.1 152.64-24.85L152.64-24.85 152.64-5.4Q152.64-3.9 153.39-3.3 154.14-2.7 155.59-2.7L155.59-2.7Q155.59-1.85 155.29-1.2 154.99-0.55 154.44 0L154.44 0ZM170.08 0.45L170.08 0.45Q164.48 0.45 161.16-3.1 157.83-6.65 157.83-13L157.83-13Q157.83-17.35 159.48-20.53 161.13-23.7 163.96-25.4 166.78-27.1 170.38-27.1L170.38-27.1Q174.88-27.1 177.61-24.48 180.33-21.85 180.33-17.1L180.33-17.1Q180.33-15.2 179.71-13.78 179.08-12.35 177.13-12.35L177.13-12.35 166.33-12.35Q166.48-8.4 168.16-6.75 169.83-5.1 172.53-5.1L172.53-5.1Q174.23-5.1 175.68-5.63 177.13-6.15 178.38-7.1L178.38-7.1Q178.83-6.7 179.11-5.88 179.38-5.05 179.38-4.5L179.38-4.5Q179.38-3.7 178.26-2.53 177.13-1.35 175.06-0.45 172.98 0.45 170.08 0.45ZM166.33-16.15L166.33-16.15 171.38-16.15Q172.23-16.15 172.46-16.8 172.68-17.45 172.68-18.4L172.68-18.4Q172.68-21.6 171.91-22.63 171.13-23.65 170.08-23.65L170.08-23.65Q169.23-23.65 168.38-23 167.53-22.35 166.98-20.73 166.43-19.1 166.33-16.15ZM194.98 0.35L189.88 0.35 183.08-20.95Q182.63-22.3 182.06-22.93 181.48-23.55 180.18-23.55L180.18-23.55Q180.18-24.35 180.43-25.18 180.68-26 181.23-26.55L181.23-26.55 192.48-26.55Q193.03-26 193.33-25.18 193.63-24.35 193.63-23.55L193.63-23.55Q192.63-23.55 191.96-23 191.28-22.45 191.28-21.3L191.28-21.3Q191.28-21.1 191.36-20.8 191.43-20.5 191.48-20.25L191.48-20.25 192.78-13.45 194.28-6.4 196.48-13.45 197.93-18.65Q198.53-21 199.26-22.63 199.98-24.25 201.78-24.25L201.78-24.25 205.63-24.2 208.23-13.5 210.43-6.6 211.53-13.5 213.18-20.55Q213.38-21.3 213.38-21.9L213.38-21.9Q213.38-23.55 211.38-23.55L211.38-23.55Q211.38-24.35 211.58-25.18 211.78-26 212.33-26.55L212.33-26.55 221.88-26.55Q222.48-26 222.68-25.18 222.88-24.35 222.88-23.55L222.88-23.55Q221.48-23.55 220.71-23.08 219.93-22.6 219.53-21.25L219.53-21.25 215.08-5.1Q214.58-3.15 214.03-1.95 213.48-0.75 212.61-0.2 211.73 0.35 210.08 0.35L210.08 0.35 206.13 0.35 201.43-14.65 198.73-5Q198.08-2.55 197.38-1.28 196.68 0 194.98 0.3L194.98 0.3 194.98 0.35ZM232.73 0L221.58 0Q220.43-1.25 220.43-3.2L220.43-3.2Q221.78-3.2 222.95-4 224.13-4.8 224.68-6.45L224.68-6.45 232.88-30.65Q230.88-31.3 227.83-31.3L227.83-31.3Q227.83-33.45 229.03-34.9L229.03-34.9 242.73-34.9 252.03-6.6Q252.58-4.95 253.78-4.08 254.98-3.2 256.28-3.2L256.28-3.2Q256.28-1.25 255.13 0L255.13 0 241.58 0Q240.43-1.25 240.43-3.2L240.43-3.2Q241.73-3.2 242.5-3.78 243.28-4.35 243.28-5.6L243.28-5.6Q243.28-6.05 243.2-6.65 243.13-7.25 242.93-7.95L242.93-7.95 242.63-9 231.43-9 231.13-7.95Q230.93-7.3 230.8-6.75 230.68-6.2 230.68-5.75L230.68-5.75Q230.68-4.4 231.53-3.8 232.38-3.2 233.88-3.2L233.88-3.2Q233.88-1.25 232.73 0L232.73 0ZM236.83-27.85L232.53-12.9 241.53-12.9 237.98-25.3Q237.53-26.8 236.83-27.85L236.83-27.85ZM269.08 0.75L269.08 0.75Q265.43 0.75 262.65-0.9 259.88-2.55 258.3-5.63 256.73-8.7 256.73-13L256.73-13Q256.73-17.45 258.43-20.63 260.13-23.8 263.08-25.48 266.03-27.15 269.73-27.15L269.73-27.15Q273.58-27.15 275.58-25.33 277.58-23.5 277.58-20.85L277.58-20.85Q277.58-18.45 276.38-17.15 275.18-15.85 273.28-15.85L273.28-15.85Q271.73-15.85 270.68-17 269.63-18.15 269.63-19.8L269.63-19.8Q269.63-21 270.05-21.75 270.48-22.5 271.13-23L271.13-23Q270.63-23.3 270.3-23.38 269.98-23.45 269.68-23.45L269.68-23.45Q268.73-23.45 267.73-22.7 266.73-21.95 266.05-20.05 265.38-18.15 265.38-14.75L265.38-14.75Q265.38-9.25 266.98-7.03 268.58-4.8 271.48-4.8L271.48-4.8Q272.83-4.8 274.2-5.2 275.58-5.6 276.53-6.35L276.53-6.35Q276.93-5.85 277.2-5.13 277.48-4.4 277.48-3.85L277.48-3.85Q277.48-2.8 276.35-1.73 275.23-0.65 273.33 0.05 271.43 0.75 269.08 0.75ZM292.22 0.45L292.22 0.45Q286.62 0.45 283.3-3.1 279.97-6.65 279.97-13L279.97-13Q279.97-17.35 281.62-20.53 283.27-23.7 286.1-25.4 288.92-27.1 292.52-27.1L292.52-27.1Q297.02-27.1 299.75-24.48 302.47-21.85 302.47-17.1L302.47-17.1Q302.47-15.2 301.85-13.78 301.22-12.35 299.27-12.35L299.27-12.35 288.47-12.35Q288.62-8.4 290.3-6.75 291.97-5.1 294.67-5.1L294.67-5.1Q296.37-5.1 297.82-5.63 299.27-6.15 300.52-7.1L300.52-7.1Q300.97-6.7 301.25-5.88 301.52-5.05 301.52-4.5L301.52-4.5Q301.52-3.7 300.4-2.53 299.27-1.35 297.2-0.45 295.12 0.45 292.22 0.45ZM288.47-16.15L288.47-16.15 293.52-16.15Q294.37-16.15 294.6-16.8 294.82-17.45 294.82-18.4L294.82-18.4Q294.82-21.6 294.05-22.63 293.27-23.65 292.22-23.65L292.22-23.65Q291.37-23.65 290.52-23 289.67-22.35 289.12-20.73 288.57-19.1 288.47-16.15Z" fill="#ff4545" data-fill-palette-color="primary"></path></g></svg></g></svg></g><g transform="matrix(1,0,0,1,0,66.25751670624813)"><svg viewBox="0 0 232.209792 26.67644033661334" height="26.67644033661334" width="232.209792"><g transform="matrix(1,0,0,1,0,0)"><svg width="232.209792" viewBox="0.15 -35.6 404.37 46.46" height="26.67644033661334" data-palette-color="#ff5252"><path d="M16.16-33.84L27.71 0 23.44 0 20.12-10.5 7.62-10.5 4.27 0 0.15 0 11.69-33.84 16.16-33.84ZM10.35-19.07L10.35-19.07 8.64-13.7 19.12-13.7 17.41-19.07Q16.48-21.92 15.65-24.73 14.82-27.54 13.96-30.49L13.96-30.49 13.75-30.49Q12.99-27.54 12.13-24.73 11.28-21.92 10.35-19.07ZM41.94 0.61L41.94 0.61Q38.64 0.61 36.01-0.93 33.37-2.47 31.83-5.38 30.3-8.3 30.3-12.45L30.3-12.45Q30.3-16.63 31.96-19.57 33.62-22.51 36.34-24.06 39.06-25.61 42.23-25.61L42.23-25.61Q44.72-25.61 46.48-24.76 48.24-23.9 49.56-22.66L49.56-22.66 47.56-20.19Q46.51-21.17 45.22-21.74 43.94-22.31 42.4-22.31L42.4-22.31Q40.09-22.31 38.27-21.07 36.45-19.82 35.4-17.61 34.35-15.41 34.35-12.45L34.35-12.45Q34.35-8.06 36.55-5.36 38.74-2.66 42.31-2.66L42.31-2.66Q44.09-2.66 45.6-3.34 47.12-4.03 48.26-5.08L48.26-5.08 50.02-2.56Q46.58 0.61 41.94 0.61ZM65.62 0.61L65.62 0.61Q62.32 0.61 59.63-0.95 56.93-2.51 55.33-5.44 53.73-8.37 53.73-12.45L53.73-12.45Q53.73-16.53 55.33-19.48 56.93-22.44 59.49-24.02 62.06-25.61 64.91-25.61L64.91-25.61Q69.62-25.61 72.21-22.46 74.8-19.31 74.8-13.89L74.8-13.89Q74.8-12.52 74.65-11.57L74.65-11.57 57.64-11.57Q57.83-7.5 60.13-5 62.42-2.51 66.08-2.51L66.08-2.51Q67.96-2.51 69.53-3.02 71.09-3.52 72.43-4.42L72.43-4.42 73.82-1.95Q72.19-0.83 70.21-0.11 68.23 0.61 65.62 0.61ZM57.59-14.43L57.59-14.43 71.31-14.43Q71.31-18.36 69.65-20.41 67.99-22.46 64.96-22.46L64.96-22.46Q62.25-22.46 60.11-20.36 57.98-18.26 57.59-14.43ZM97.38 10.86L97.38 10.86Q96.55 10.86 95.82 10.71 95.08 10.55 94.5 10.3L94.5 10.3 95.33 7.2Q95.79 7.35 96.28 7.46 96.77 7.57 97.18 7.57L97.18 7.57Q99.36 7.57 100.75 5.98 102.14 4.39 102.94 2L102.94 2 103.58 0.1 93.47-24.98 97.55-24.98 102.8-10.86Q103.38-9.23 104.02-7.39 104.65-5.54 105.26-3.81L105.26-3.81 105.48-3.81Q106.02-5.54 106.56-7.37 107.09-9.2 107.58-10.86L107.58-10.86 112.22-24.98 116.1-24.98 106.61 2.2Q105.75 4.61 104.54 6.58 103.33 8.54 101.59 9.7 99.84 10.86 97.38 10.86ZM130.6 0.61L130.6 0.61Q127.58 0.61 124.95-0.93 122.33-2.47 120.73-5.38 119.13-8.3 119.13-12.45L119.13-12.45Q119.13-16.63 120.73-19.57 122.33-22.51 124.95-24.06 127.58-25.61 130.6-25.61L130.6-25.61Q133.68-25.61 136.32-24.06 138.95-22.51 140.55-19.57 142.15-16.63 142.15-12.45L142.15-12.45Q142.15-8.3 140.55-5.38 138.95-2.47 136.32-0.93 133.68 0.61 130.6 0.61ZM130.6-2.66L130.6-2.66Q133.95-2.66 136.02-5.36 138.1-8.06 138.1-12.45L138.1-12.45Q138.1-16.87 136.02-19.59 133.95-22.31 130.6-22.31L130.6-22.31Q128.43-22.31 126.75-21.07 125.06-19.82 124.12-17.61 123.18-15.41 123.18-12.45L123.18-12.45Q123.18-8.06 125.26-5.36 127.33-2.66 130.6-2.66ZM156.16 0.61L156.16 0.61Q152.23 0.61 150.39-1.86 148.54-4.32 148.54-9.11L148.54-9.11 148.54-24.98 152.45-24.98 152.45-9.62Q152.45-6.08 153.61-4.46 154.77-2.83 157.36-2.83L157.36-2.83Q159.31-2.83 160.86-3.85 162.41-4.86 164.27-7.15L164.27-7.15 164.27-24.98 168.17-24.98 168.17 0 164.93 0 164.58-3.96 164.41-3.96Q162.68-1.9 160.7-0.65 158.73 0.61 156.16 0.61ZM180.74 0L176.79 0 176.79-24.98 180.09-24.98 180.45-20.46 180.55-20.46Q181.87-22.8 183.7-24.21 185.53-25.61 187.65-25.61L187.65-25.61Q189.26-25.61 190.29-25.1L190.29-25.1 189.41-21.73Q188.87-21.9 188.4-21.97 187.92-22.05 187.14-22.05L187.14-22.05Q185.55-22.05 183.8-20.74 182.04-19.43 180.74-16.16L180.74-16.16 180.74 0ZM214.53 0L210.57 0 210.57-24.98 214.53-24.98 214.53 0ZM212.62-30.25L212.62-30.25Q211.43-30.25 210.7-30.99 209.96-31.74 209.96-32.98L209.96-32.98Q209.96-34.13 210.7-34.86 211.43-35.6 212.62-35.6L212.62-35.6Q213.82-35.6 214.55-34.86 215.29-34.13 215.29-32.98L215.29-32.98Q215.29-31.74 214.55-30.99 213.82-30.25 212.62-30.25ZM227.1 0L223.14 0 223.14-24.98 226.44-24.98 226.81-21.39 226.9-21.39Q228.71-23.17 230.74-24.39 232.76-25.61 235.35-25.61L235.35-25.61Q239.26-25.61 241.09-23.13 242.92-20.65 242.92-15.87L242.92-15.87 242.92 0 239.01 0 239.01-15.36Q239.01-18.92 237.87-20.56 236.72-22.19 234.11-22.19L234.11-22.19Q232.18-22.19 230.61-21.17 229.05-20.14 227.1-18.19L227.1-18.19 227.1 0ZM258.88 0.61L258.88 0.61Q254.95 0.61 253.41-1.66 251.88-3.93 251.88-7.62L251.88-7.62 251.88-21.73 248.17-21.73 248.17-24.78 252.1-24.98 252.56-33.08 255.86-33.08 255.86-24.98 262.72-24.98 262.72-21.73 255.86-21.73 255.86-7.52Q255.86-5.2 256.71-3.91 257.57-2.61 259.76-2.61L259.76-2.61Q260.42-2.61 261.15-2.75 261.89-2.88 262.64-3.22L262.64-3.22 263.52-0.44Q262.52 0 261.33 0.31 260.13 0.61 258.88 0.61ZM278.41 0.61L278.41 0.61Q275.12 0.61 272.42-0.95 269.72-2.51 268.12-5.44 266.52-8.37 266.52-12.45L266.52-12.45Q266.52-16.53 268.12-19.48 269.72-22.44 272.28-24.02 274.85-25.61 277.7-25.61L277.7-25.61Q282.42-25.61 285-22.46 287.59-19.31 287.59-13.89L287.59-13.89Q287.59-12.52 287.45-11.57L287.45-11.57 270.43-11.57Q270.62-7.5 272.92-5 275.21-2.51 278.88-2.51L278.88-2.51Q280.76-2.51 282.32-3.02 283.88-3.52 285.22-4.42L285.22-4.42 286.62-1.95Q284.98-0.83 283-0.11 281.02 0.61 278.41 0.61ZM270.38-14.43L270.38-14.43 284.1-14.43Q284.1-18.36 282.44-20.41 280.78-22.46 277.75-22.46L277.75-22.46Q275.04-22.46 272.91-20.36 270.77-18.26 270.38-14.43ZM297.77 0L293.82 0 293.82-24.98 297.11-24.98 297.48-20.46 297.57-20.46Q298.89-22.8 300.72-24.21 302.56-25.61 304.68-25.61L304.68-25.61Q306.29-25.61 307.32-25.1L307.32-25.1 306.44-21.73Q305.9-21.9 305.42-21.97 304.95-22.05 304.17-22.05L304.17-22.05Q302.58-22.05 300.82-20.74 299.06-19.43 297.77-16.16L297.77-16.16 297.77 0ZM321.47 0L316.88 0 307.83-24.98 311.9-24.98 316.79-10.6Q317.35-8.74 317.93-6.88 318.52-5.03 319.11-3.22L319.11-3.22 319.33-3.22Q319.89-5.03 320.5-6.88 321.11-8.74 321.64-10.6L321.64-10.6 326.53-24.98 330.38-24.98 321.47 0ZM339.24 0L335.29 0 335.29-24.98 339.24-24.98 339.24 0ZM337.34-30.25L337.34-30.25Q336.14-30.25 335.41-30.99 334.68-31.74 334.68-32.98L334.68-32.98Q334.68-34.13 335.41-34.86 336.14-35.6 337.34-35.6L337.34-35.6Q338.54-35.6 339.27-34.86 340-34.13 340-32.98L340-32.98Q340-31.74 339.27-30.99 338.54-30.25 337.34-30.25ZM357.89 0.61L357.89 0.61Q354.6 0.61 351.9-0.95 349.2-2.51 347.6-5.44 346-8.37 346-12.45L346-12.45Q346-16.53 347.6-19.48 349.2-22.44 351.77-24.02 354.33-25.61 357.19-25.61L357.19-25.61Q361.9-25.61 364.49-22.46 367.07-19.31 367.07-13.89L367.07-13.89Q367.07-12.52 366.93-11.57L366.93-11.57 349.91-11.57Q350.11-7.5 352.4-5 354.7-2.51 358.36-2.51L358.36-2.51Q360.24-2.51 361.8-3.02 363.36-3.52 364.71-4.42L364.71-4.42 366.1-1.95Q364.46-0.83 362.48-0.11 360.51 0.61 357.89 0.61ZM349.86-14.43L349.86-14.43 363.58-14.43Q363.58-18.36 361.92-20.41 360.26-22.46 357.24-22.46L357.24-22.46Q354.53-22.46 352.39-20.36 350.25-18.26 349.86-14.43ZM381.89 0L377.25 0 370.25-24.98 374.27-24.98 378.13-10.3Q378.55-8.52 378.91-6.82 379.28-5.13 379.62-3.34L379.62-3.34 379.84-3.34Q380.26-5.13 380.69-6.85 381.13-8.57 381.6-10.3L381.6-10.3 385.5-24.98 389.48-24.98 393.44-10.3Q393.9-8.52 394.34-6.82 394.78-5.13 395.2-3.34L395.2-3.34 395.39-3.34Q395.83-5.13 396.21-6.82 396.59-8.52 397-10.3L397-10.3 400.76-24.98 404.52-24.98 397.76 0 392.93 0 389.22-13.75Q388.75-15.53 388.35-17.3 387.95-19.07 387.46-20.92L387.46-20.92 387.26-20.92Q386.87-19.07 386.47-17.27 386.07-15.48 385.5-13.7L385.5-13.7 381.89 0Z" opacity="1" transform="matrix(1,0,0,1,0,0)" fill="#ff5252" class="slogan-text-1" data-fill-palette-color="secondary" id="text-1"></path></svg></g></svg></g></svg></g></svg></g><g><svg viewBox="0 0 71.43509956343546 128.43472863323456" height="128.43472863323456" width="71.43509956343546"><g><svg xmlns="http://www.w3.org/2000/svg" xmlns:xlink="http://www.w3.org/1999/xlink" version="1.1" x="0" y="0" viewBox="4.972207772567041 10.749999999999996 50.05779222743296 90" enable-background="new 2.192 5.75 55.619 100" xml:space="preserve" height="128.43472863323456" width="71.43509956343546" class="icon-icon-0" data-fill-palette-color="accent" id="icon-0"><path d="M55.03 53.62C55.03 58.404 52.079 63.033 47.453 64.555 42.336 66.239 36.887 63.544 34.612 58.769 33.453 56.338 33.389 53.777 33.55 51.145A91 91 0 0 1 34.564 42.228C35.06 39.156 35.677 36.077 36.64 33.113 37.377 30.843 38.412 27.423 40.726 26.268 42.995 25.006 45.494 27.393 46.243 29.389 45.137 28.422 44.537 27.715 43.024 27.383 41.355 27.018 40.261 28.427 39.766 29.91V29.921C38.112 33.802 37.559 38.47 37.458 42.659 37.374 46.144 40.414 50.086 44.261 49.316 43.952 50.263 43.714 51.274 43.302 52.181 42.94 53.013 42.57 54 42.955 54.892 43.532 56.229 45.521 56.685 46.774 56.175A2.78 2.78 0 0 0 48.478 54.577L53.026 43.83C54.273 47.858 55.03 51.543 55.03 53.62" fill="#ff4848" data-fill-palette-color="accent"></path><circle cx="17.219" cy="17.939" r="6.9" fill="#ff4848" data-fill-palette-color="accent"></circle><path d="M27.204 33.383A2.53 2.53 0 0 0 24.674 35.913C24.674 36.497 24.88 37.027 25.212 37.455 25.186 37.55 25.157 37.642 25.14 37.743L24.29 42.61 21.213 42.339V32.052A5.857 5.857 0 0 0 9.524 31.515L5.101 42.61C4.665 43.703 5.372 45.011 6.678 45.532 7.004 45.662 9.496 46.12 9.496 46.12V57.614C9.496 59.047 10.012 60.358 10.867 61.376L12.159 97.821A2.929 2.929 0 1 0 18.017 97.821L20.677 60.05A5.8 5.8 0 0 0 21.213 57.614V47.148L23.464 47.345 23.354 47.977C23.243 48.61 23.645 49.207 24.245 49.336A1.176 1.176 0 0 0 25.619 48.466L25.866 47.511C27.074 47.407 28.059 46.518 28.161 45.353 28.241 44.448 27.759 43.621 26.995 43.146L28.221 38.407C28.238 38.34 28.244 38.273 28.257 38.206A2.525 2.525 0 0 0 27.204 33.383" fill="#ff4848" data-fill-palette-color="accent"></path><circle cx="39.053" cy="17.673" r="6.9" fill="#ff4848" data-fill-palette-color="accent"></circle><path d="M44.251 66.135C44.581 66.135 44.901 66.124 45.22 66.092L44.112 97.555C44.112 99.174 42.802 100.484 41.183 100.484S38.254 99.174 38.254 97.555L35.772 62.364C37.924 64.686 40.928 66.135 44.251 66.135" fill="#ff4848" data-fill-palette-color="accent"></path><path d="M39.074 26.226C37.349 27.962 36.039 31.157 35.059 34.789V31.785A5.85 5.85 0 0 1 39.074 26.226" fill="#ff4848" data-fill-palette-color="accent"></path><path d="M52.75 39.326L46.775 31.945C47.041 29.921 43.077 28.171 42.27 28.324 40.941 28.575 39.906 32.883 39.842 33.149V33.16L39.853 33.171C39.651 33.949 39.054 36.313 38.894 38.262 38.873 38.52 38.521 41.372 38.521 42.895 38.521 45.877 40.779 48.295 43.548 48.295 43.697 48.295 44.911 48.295 45.902 47.667 45.902 47.667 44.704 51.181 44.379 52.375 44.113 53.355 43.58 54.42 44.549 55.038 44.846 55.228 45.731 55.304 46.242 55.24 46.95 55.152 47.307 54.686 47.499 54.164L52.047 43.417S53.069 41.266 53.123 40.882C53.219 40.317 53.102 39.763 52.75 39.326M46.775 45.003V40.04L47.925 41.457z" fill="#ff4848" data-fill-palette-color="accent"></path></svg></g></svg></g></svg></g><defs></defs></svg><rect width="395.52" height="102.19014006817042" fill="none" stroke="none" visibility="hidden"></rect></g></svg></g></svg>